<?xml version="1.0" encoding="utf-8"?>
<!-- Generator: Adobe Illustrator 22.0.1, SVG Export Plug-In . SVG Version: 6.00 Build 0)  -->
<svg version="1.1" id="Layer_1" xmlns="http://www.w3.org/2000/svg" xmlns:xlink="http://www.w3.org/1999/xlink" x="0px" y="0px"
	 viewBox="0 0 500 424" style="enable-background:new 0 0 500 424;" xml:space="preserve">
<style type="text/css">
	.st0{opacity:0.3;fill:#D0E1FB;enable-background:new    ;}
	.st1{fill:#FFFFFF;}
	.st2{fill:#D0E1FB;}
	.st3{fill:#636FA0;}
	.st4{fill:#B5CCF8;}
	.st5{fill:#4463AD;}
	.st6{enable-background:new    ;}
</style>
<g>
	<path class="st0" d="M57.5,148.4c0,0,4.2-46.3,61.7-52.5c34.2-14.6,135.9-50.5,208.1,5.8c93.8,65.5,122.6,75.1,98,136.8
		s-29.2,95.5-127.2,89.6c-98-5.8-274.8,48.4-248.9-134.3L57.5,148.4z"/>
	<path class="st1" d="M191.4,229.2h-83.5c1.5,0,2.7-1.2,2.7-2.7s-1.2-2.7-2.7-2.7h-5.6c3.9,0,7-3.2,7-7c0-3.9-3.2-7-7-7H23.8
		c-3.9,0-7,3.2-7,7c0,3.9,3.2,7,7,7h47.6c-1.5,0-2.7,1.2-2.7,2.7s1.2,2.7,2.7,2.7H76c-5.1,0-9.2,4.2-9.2,9.2c0,5.1,4.2,9.2,9.2,9.2
		H64.8c-1.5,0-2.7,1.2-2.7,2.7s1.2,2.7,2.7,2.7H32.3c-4,0-7.3,3.3-7.3,7.3s3.3,7.3,7.3,7.3H114c4,0,7.3-3.3,7.3-7.3S118,253,114,253
		h-11.3c1.5,0,2.7-1.2,2.7-2.7s-1.2-2.7-2.7-2.7h88.8c5.1,0,9.2-4.2,9.2-9.2C200.7,233.3,196.5,229.2,191.4,229.2z M83,223.8h13.4
		c-1.5,0-2.7,1.2-2.7,2.7s1.2,2.7,2.7,2.7H83c1.5,0,2.7-1.2,2.7-2.7S84.4,223.8,83,223.8z M91.1,252.9H76.3c1.5,0,2.7-1.2,2.7-2.7
		s-1.2-2.7-2.7-2.7h14.8c-1.5,0-2.7,1.2-2.7,2.7S89.7,252.9,91.1,252.9z"/>
	<path class="st1" d="M281.4,164.6c0,5.1,4.2,9.2,9.2,9.2h101.3c-1.5,0-2.7,1.2-2.7,2.7s1.2,2.7,2.7,2.7h-11.3c-4,0-7.3,3.3-7.3,7.3
		s3.3,7.3,7.3,7.3h88c4,0,7.3-3.3,7.3-7.3s-3.3-7.3-7.3-7.3H436c1.5,0,2.7-1.2,2.7-2.7s-1.2-2.7-2.7-2.7h-11.3
		c5.1,0,9.2-4.2,9.2-9.2c0-5.1-4.2-9.2-9.2-9.2h4.6c1.5,0,2.7-1.2,2.7-2.7s-1.2-2.7-2.7-2.7H477c3.9,0,7-3.2,7-7c0-3.9-3.2-7-7-7
		h-84.7c-3.9,0-7,3.2-7,7c0,3.9,3.2,7,7,7h-5.6c-1.5,0-2.7,1.2-2.7,2.7s1.2,2.7,2.7,2.7h-96C285.5,155.4,281.4,159.5,281.4,164.6z
		 M408.9,152.7c0,1.5,1.2,2.7,2.7,2.7h-13.4c1.5,0,2.7-1.2,2.7-2.7s-1.2-2.7-2.7-2.7h13.4C410.1,150,408.9,151.2,408.9,152.7z
		 M406.1,176.5c0-1.5-1.2-2.7-2.7-2.7h21c-1.5,0-2.7,1.2-2.7,2.7s1.2,2.7,2.7,2.7h-21C404.9,179.1,406.1,177.9,406.1,176.5z"/>
	<path class="st2" d="M230.2,134.5l-83.3,10c-3.6,0.4-6.9-2.1-7.3-5.7l-4.4-37.8c-0.4-3.6,2.1-6.9,5.7-7.3l83.3-10
		c3.6-0.4,6.9,2.1,7.3,5.7l4.4,37.8C236.4,130.8,233.8,134,230.2,134.5z"/>
	<g>
		<path class="st1" d="M203.2,152.7h90c2.8,0,5,2.2,5,5v152.5c0,2.8-2.2,5-5,5H177.9c-2.8,0-5-2.2-5-5V183.1"/>
		<path class="st3" d="M284.5,263.4H183.9c-0.3,0-0.5-0.2-0.5-0.5v-0.3c0-0.3,0.2-0.5,0.5-0.5h100.6c0.3,0,0.5,0.2,0.5,0.5v0.3
			C285,263.2,284.8,263.4,284.5,263.4z"/>
		<path class="st3" d="M284.5,277.6H183.9c-0.3,0-0.5-0.2-0.5-0.5v-0.3c0-0.3,0.2-0.5,0.5-0.5h100.6c0.3,0,0.5,0.2,0.5,0.5v0.3
			C285,277.4,284.8,277.6,284.5,277.6z"/>
		<path class="st3" d="M234.3,291.9h-50.4c-0.3,0-0.5-0.2-0.5-0.5v-0.3c0-0.3,0.2-0.5,0.5-0.5h50.4c0.3,0,0.5,0.2,0.5,0.5v0.3
			C234.8,291.6,234.6,291.9,234.3,291.9z"/>
		<path class="st4" d="M261.6,242.5h-54.2c-0.3,0-0.5-0.2-0.5-0.5v-0.6c0-0.3,0.2-0.5,0.5-0.5h54.2c0.3,0,0.5,0.2,0.5,0.5v0.6
			C262.1,242.3,261.8,242.5,261.6,242.5z"/>
		<path class="st5" d="M256.2,212.2L256.2,212.2c-4.3-4.6-11.8-7.6-20.4-7.6c-8.9,0-16.7,3.3-20.8,8.1l0,0l0,0l0,0
			c-0.1,0.1-0.1,0.2-0.1,0.3c0,0.3,0.2,0.6,0.6,0.6c0.2,0,0.3-0.1,0.4-0.2l0,0c4.3-4.4,11.7-7.2,20-7.2c8,0,15.2,2.7,19.5,6.7l0,0
			c0.2,0.2,0.6,0.2,0.8,0C256.4,212.8,256.4,212.4,256.2,212.2z"/>
		<circle class="st5" cx="260.5" cy="196.5" r="3.1"/>
		<circle class="st5" cx="210" cy="196.5" r="3.1"/>
		<path class="st5" d="M171.7,183v127.4c0,3.3,2.6,5.9,5.9,5.9h116c3.3,0,5.9-2.6,5.9-5.9V157.3c0-3.3-2.6-5.9-5.9-5.9h-90.4v1.2h90
			c2.8,0,5,2.2,5,5v152.5c0,2.8-2.2,5-5,5H177.9c-2.8,0-5-2.2-5-5V183H171.7z"/>
		<path class="st1" d="M171.7,181.8v1.2h25.7c3.3,0,5.9-2.6,5.9-5.9v-25.7h-1.2L171.7,181.8z"/>
		<path class="st5" d="M202,151.4v25.4c0,2.8-2.2,5-5,5h-25.3v1.2h25.7c3.3,0,5.9-2.6,5.9-5.9v-25.7H202z"/>
		<polygon class="st5" points="172.5,182.7 202.9,152.3 202.1,151.4 171.7,181.8 		"/>
	</g>
	<path class="st5" d="M230.5,330h-0.3c-0.3,0-0.6-0.3-0.6-0.6v-13.2c0-0.3,0.3-0.6,0.6-0.6h0.3c0.3,0,0.6,0.3,0.6,0.6v13.2
		C231.1,329.7,230.9,330,230.5,330z"/>
	<path class="st5" d="M241.1,330h-0.3c-0.3,0-0.6-0.3-0.6-0.6v-13.2c0-0.3,0.3-0.6,0.6-0.6h0.3c0.3,0,0.6,0.3,0.6,0.6v13.2
		C241.7,329.7,241.4,330,241.1,330z"/>
	<path class="st5" d="M298.6,214.6L298.6,214.6c0.2,4.8,3,10.3,8,14.5c5.1,4.4,11.3,6.3,16.1,5.5l0,0l0,0l0,0c0.1,0,0.2-0.1,0.2-0.1
		c0.2-0.2,0.1-0.4,0-0.6c-0.1-0.1-0.2-0.1-0.3-0.1l0,0c-4.7,0.4-10.4-1.5-15.2-5.6c-4.6-4-7.4-9.1-7.9-13.6l0,0
		c0-0.2-0.2-0.4-0.5-0.4S298.6,214.4,298.6,214.6z"/>
	<path class="st5" d="M142.7,191.2L142.7,191.2c1,5.1,4.9,11.4,11.1,16.6c6.4,5.5,13.5,8.5,18.7,8.4l0,0l0,0l0,0
		c0.1,0,0.2,0,0.2-0.1c0.1-0.2,0.1-0.5-0.1-0.6c-0.1-0.1-0.3-0.2-0.4-0.1l0,0c-5.1-0.3-11.7-3.2-17.7-8.4
		c-5.8-4.9-9.6-10.7-10.8-15.6l0,0c-0.1-0.3-0.3-0.5-0.6-0.5C142.9,190.7,142.7,190.9,142.7,191.2z"/>
	<path class="st5" d="M233.5,124.8l-4.8-39.2c-0.4-3.6-3.7-6.2-7.3-5.7L137.3,90c-3.6,0.4-6.2,3.7-5.7,7.3l4.8,39.2
		c0.4,3.6,3.7,6.2,7.3,5.7l84.1-10.2C231.4,131.7,234,128.4,233.5,124.8z M227.9,131l-84.7,10.3c-2.8,0.3-5.3-1.6-5.6-4.4l-4.9-40
		c-0.3-2.8,1.6-5.3,4.4-5.6L221.8,81c2.8-0.3,5.3,1.6,5.6,4.4l4.9,40C232.7,128.1,230.7,130.6,227.9,131z"/>
	<polygon class="st5" points="135.7,131.3 145.5,215.5 146.8,215.5 136.9,130.8 	"/>
</g>
<g class="st6">
	<path class="st5" d="M173.2,121l-3.8,0.5l0.6,4.9l-5.3,0.7l-0.6-4.9l-12.6,1.6l-0.5-3.7l9.2-16.3l5.7-0.7l-8.5,15.4l6.3-0.8
		l-0.6-4.4l5.1-0.6l0.6,4.4l3.8-0.5L173.2,121z"/>
	<path class="st5" d="M180.2,124.1c-1.6-0.8-3-2-4.1-3.7s-1.8-3.8-2.1-6.4c-0.3-2.5-0.2-4.8,0.5-6.7c0.6-1.9,1.6-3.5,3-4.6
		c1.4-1.2,3.1-1.9,5-2.1c1.9-0.2,3.7,0,5.4,0.8c1.6,0.8,3,2,4.1,3.7s1.8,3.8,2.1,6.4c0.3,2.5,0.2,4.8-0.5,6.7
		c-0.6,1.9-1.6,3.5-3,4.6s-3.1,1.9-5,2.1C183.6,125.2,181.8,124.9,180.2,124.1z M188.1,118c0.7-1.3,0.8-3.3,0.5-5.9s-1-4.4-1.9-5.5
		c-1-1.1-2.2-1.6-3.6-1.4c-1.4,0.2-2.4,0.9-3.1,2.3c-0.7,1.3-0.8,3.3-0.5,5.9s1,4.4,1.9,5.5c1,1.1,2.2,1.6,3.6,1.4
		C186.4,120.1,187.5,119.4,188.1,118z"/>
	<path class="st5" d="M219.1,115.3l-3.8,0.5l0.6,4.9l-5.3,0.7l-0.6-4.9l-12.6,1.6l-0.5-3.7l9.2-16.3l5.7-0.7l-8.5,15.4l6.3-0.8
		l-0.6-4.4l5.1-0.6l0.6,4.4l3.8-0.5L219.1,115.3z"/>
</g>
<g class="st6">
	<path d="M183.6,354.8c0,3-2.2,4.8-5.8,4.8h-2.3v3.4h-3.7v-13h5.9C181.3,350,183.6,351.9,183.6,354.8z M179.8,354.8
		c0-1.2-0.8-1.9-2.3-1.9h-2v3.8h2C179.1,356.7,179.8,356,179.8,354.8z"/>
	<path d="M194.5,357.5v5.6h-3.3v-1.3c-0.5,1-1.5,1.5-3,1.5c-2.4,0-3.8-1.4-3.8-3.1c0-1.9,1.4-3,4.5-3h2c-0.1-1-0.7-1.6-2.1-1.6
		c-1,0-2,0.3-2.7,0.9l-1.2-2.4c1.2-0.8,2.9-1.2,4.4-1.2C192.6,352.8,194.5,354.3,194.5,357.5z M191,359.8v-0.9h-1.5
		c-1.1,0-1.5,0.4-1.5,1s0.5,1,1.3,1C190,361,190.7,360.6,191,359.8z"/>
	<path d="M207.7,353v8.2c0,3.8-2.2,5.6-5.9,5.6c-1.9,0-3.8-0.4-5-1.3l1.3-2.5c0.8,0.7,2.2,1.1,3.4,1.1c1.9,0,2.7-0.9,2.7-2.4v-0.3
		c-0.7,0.8-1.7,1.2-3,1.2c-2.7,0-4.9-1.9-4.9-4.9s2.3-4.9,4.9-4.9c1.4,0,2.5,0.4,3.2,1.4V353H207.7z M204.2,357.7c0-1.2-0.9-2-2.2-2
		s-2.2,0.8-2.2,2s0.9,2.1,2.2,2.1S204.2,358.9,204.2,357.7z"/>
	<path d="M220.2,358.9h-7.3c0.3,1,1.2,1.6,2.5,1.6c1,0,1.6-0.3,2.3-0.9l1.9,1.9c-1,1.1-2.4,1.6-4.3,1.6c-3.6,0-5.9-2.2-5.9-5.2
		s2.4-5.2,5.5-5.2c3,0,5.4,1.9,5.4,5.2C220.3,358.3,220.3,358.6,220.2,358.9z M212.9,357h4.1c-0.2-1.1-1-1.7-2.1-1.7
		C213.8,355.3,213.1,356,212.9,357z"/>
	<path d="M239.9,350v13h-3l-5.7-6.9v6.9h-3.6v-13h3l5.7,6.9V350H239.9z"/>
	<path d="M241.7,358c0-3,2.4-5.2,5.7-5.2s5.7,2.2,5.7,5.2s-2.4,5.2-5.7,5.2C244.1,363.2,241.7,361,241.7,358z M249.5,358
		c0-1.5-0.9-2.4-2.1-2.4c-1.2,0-2.1,0.9-2.1,2.4s0.9,2.4,2.1,2.4S249.5,359.5,249.5,358z"/>
	<path d="M261.6,362.6c-0.6,0.4-1.5,0.6-2.5,0.6c-2.6,0-4.1-1.3-4.1-3.8V356h-1.5v-2.6h1.5v-2.6h3.5v2.6h2.3v2.6h-2.3v3.3
		c0,0.7,0.4,1.2,1.1,1.2c0.4,0,0.8-0.1,1.1-0.3L261.6,362.6z"/>
	<path d="M272.3,352.9v2.9h5.7v2.8h-5.7v4.5h-3.7v-13h10.2v2.8L272.3,352.9L272.3,352.9z"/>
	<path d="M279.5,358c0-3,2.4-5.2,5.7-5.2c3.3,0,5.7,2.2,5.7,5.2s-2.4,5.2-5.7,5.2S279.5,361,279.5,358z M287.3,358
		c0-1.5-0.9-2.4-2.1-2.4s-2.1,0.9-2.1,2.4s0.9,2.4,2.1,2.4S287.3,359.5,287.3,358z"/>
	<path d="M303.1,353v10h-3.4v-1c-0.8,0.8-1.8,1.2-3,1.2c-2.5,0-4.3-1.4-4.3-4.6V353h3.5v5.1c0,1.6,0.6,2.2,1.7,2.2
		c1,0,1.9-0.7,1.9-2.4V353H303.1z"/>
	<path d="M316.1,357.3v5.8h-3.5v-5.2c0-1.4-0.6-2.1-1.7-2.1s-2,0.7-2,2.4v4.9h-3.5V353h3.4v1.1c0.8-0.8,1.9-1.3,3.2-1.3
		C314.3,352.8,316.1,354.2,316.1,357.3z"/>
	<path d="M329.1,349.3V363h-3.4v-1c-0.7,0.8-1.7,1.2-3,1.2c-2.8,0-5-2-5-5.2s2.2-5.2,5-5.2c1.2,0,2.1,0.3,2.8,1v-4.6h3.6V349.3z
		 M325.7,358c0-1.5-0.9-2.4-2.1-2.4s-2.1,0.9-2.1,2.4s0.9,2.4,2.1,2.4C324.8,360.4,325.7,359.5,325.7,358z"/>
</g>
</svg>
